# xmcd
#
# Track frame offsets:
#   150
#   14894
#   20173
#   36690
#   55073
#   69642
#   89737
#   107375
#   122019
#   140273
#   157384
#   177002
#   194816
#   210835
#   227974
#   250115
#   266380
#   280491
#   298220
#   316172
#
# Disc length: 4404 seconds
#
# Revision: 0
# Processed by: cddbd v1.5.1PL0 Copyright (c) Steve Scherf et al.
# Submitted via: Media_Universe 3.0
#
DISCID=3a113214
DTITLE=WYNONA - Wynona
DYEAR=2004
DGENRE=Country
TTITLE0=Come Some Rainy Day
TTITLE1=Tribute To Elvis
TTITLE2=A Bad Goodbye
TTITLE3=This Is The Time
TTITLE4=Mama He's Crazy
TTITLE5=She Is His Only Need
TTITLE6=I Saw The Light In Your Window
TTITLE7=Girls With Guitars
TTITLE8=Heaven Help Me
TTITLE9=Is It Over Yet
TTITLE10=My Strongest Wealness
TTITLE11=No One Else On Earth
TTITLE12=Only Love
TTITLE13=Tell Me Why
TTITLE14=To Be Loved By You
TTITLE15=What The World Needs
TTITLE16=When Love Starts Talking
TTITLE17=Woman To Woman
TTITLE18=Healing
TTITLE19=Testify To Love
EXTD=
EXTT0=
EXTT1=
EXTT2=
EXTT3=
EXTT4=
EXTT5=
EXTT6=
EXTT7=
EXTT8=
EXTT9=
EXTT10=
EXTT11=
EXTT12=
EXTT13=
EXTT14=
EXTT15=
EXTT16=
EXTT17=
EXTT18=
EXTT19=
PLAYORDER=
